<svg id="visual" viewBox="0 0 540 960" width="540" height="960" xmlns="http://www.w3.org/2000/svg" xmlns:xlink="http://www.w3.org/1999/xlink" version="1.1"><rect x="0" y="0" width="540" height="960" fill="#931C1C"></rect><path d="M0 695L77 708L154 683L231 619L309 599L386 617L463 655L540 702L540 961L463 961L386 961L309 961L231 961L154 961L77 961L0 961Z" fill="#f5730a"></path><path d="M0 705L77 642L154 684L231 742L309 745L386 729L463 700L540 760L540 961L463 961L386 961L309 961L231 961L154 961L77 961L0 961Z" fill="#da5b09"></path><path d="M0 711L77 759L154 699L231 747L309 729L386 757L463 802L540 791L540 961L463 961L386 961L309 961L231 961L154 961L77 961L0 961Z" fill="#be4407"></path><path d="M0 867L77 857L154 793L231 845L309 852L386 832L463 816L540 847L540 961L463 961L386 961L309 961L231 961L154 961L77 961L0 961Z" fill="#a32d04"></path><path d="M0 882L77 857L154 904L231 901L309 846L386 885L463 886L540 868L540 961L463 961L386 961L309 961L231 961L154 961L77 961L0 961Z" fill="#871400"></path></svg>