<svg id="visual" viewBox="0 0 540 960" width="540" height="960" xmlns="http://www.w3.org/2000/svg" xmlns:xlink="http://www.w3.org/1999/xlink" version="1.1"><path d="M0 87L49 174L98 87L147 126L196 78L245 126L295 174L344 174L393 116L442 145L491 68L540 78L540 0L491 0L442 0L393 0L344 0L295 0L245 0L196 0L147 0L98 0L49 0L0 0Z" fill="#00cc8e"></path><path d="M0 443L49 567L98 471L147 423L196 491L245 452L295 529L344 404L393 481L442 404L491 443L540 471L540 76L491 66L442 143L393 114L344 172L295 172L245 124L196 76L147 124L98 85L49 172L0 85Z" fill="#00b98a"></path><path d="M0 519L49 635L98 587L147 481L196 548L245 615L295 663L344 491L393 539L442 539L491 529L540 606L540 469L491 441L442 402L393 479L344 402L295 527L245 450L196 489L147 421L98 469L49 565L0 441Z" fill="#00a784"></path><path d="M0 673L49 750L98 683L147 673L196 663L245 798L295 779L344 606L393 702L442 711L491 807L540 740L540 604L491 527L442 537L393 537L344 489L295 661L245 613L196 546L147 479L98 585L49 633L0 517Z" fill="#00957c"></path><path d="M0 961L49 961L98 961L147 961L196 961L245 961L295 961L344 961L393 961L442 961L491 961L540 961L540 738L491 805L442 709L393 700L344 604L295 777L245 796L196 661L147 671L98 681L49 748L0 671Z" fill="#038373"></path></svg>