<svg id="visual" viewBox="0 0 960 540" width="960" height="540" xmlns="http://www.w3.org/2000/svg" xmlns:xlink="http://www.w3.org/1999/xlink" version="1.1"><rect x="0" y="0" width="960" height="540" fill="#001220"></rect><path d="M0 351L22.8 359.5C45.7 368 91.3 385 137 391C182.7 397 228.3 392 274 386C319.7 380 365.3 373 411.2 374C457 375 503 384 548.8 389.2C594.7 394.3 640.3 395.7 686 388.2C731.7 380.7 777.3 364.3 823 353.2C868.7 342 914.3 336 937.2 333L960 330L960 541L937.2 541C914.3 541 868.7 541 823 541C777.3 541 731.7 541 686 541C640.3 541 594.7 541 548.8 541C503 541 457 541 411.2 541C365.3 541 319.7 541 274 541C228.3 541 182.7 541 137 541C91.3 541 45.7 541 22.8 541L0 541Z" fill="#80fa69"></path><path d="M0 366L22.8 368.3C45.7 370.7 91.3 375.3 137 377.7C182.7 380 228.3 380 274 384.2C319.7 388.3 365.3 396.7 411.2 405C457 413.3 503 421.7 548.8 426C594.7 430.3 640.3 430.7 686 420.2C731.7 409.7 777.3 388.3 823 376.2C868.7 364 914.3 361 937.2 359.5L960 358L960 541L937.2 541C914.3 541 868.7 541 823 541C777.3 541 731.7 541 686 541C640.3 541 594.7 541 548.8 541C503 541 457 541 411.2 541C365.3 541 319.7 541 274 541C228.3 541 182.7 541 137 541C91.3 541 45.7 541 22.8 541L0 541Z" fill="#6ded59"></path><path d="M0 429L22.8 425C45.7 421 91.3 413 137 417.3C182.7 421.7 228.3 438.3 274 442.7C319.7 447 365.3 439 411.2 439.8C457 440.7 503 450.3 548.8 444.3C594.7 438.3 640.3 416.7 686 409.3C731.7 402 777.3 409 823 415C868.7 421 914.3 426 937.2 428.5L960 431L960 541L937.2 541C914.3 541 868.7 541 823 541C777.3 541 731.7 541 686 541C640.3 541 594.7 541 548.8 541C503 541 457 541 411.2 541C365.3 541 319.7 541 274 541C228.3 541 182.7 541 137 541C91.3 541 45.7 541 22.8 541L0 541Z" fill="#59e049"></path><path d="M0 487L22.8 479.3C45.7 471.7 91.3 456.3 137 448.8C182.7 441.3 228.3 441.7 274 441.7C319.7 441.7 365.3 441.3 411.2 447.2C457 453 503 465 548.8 470.5C594.7 476 640.3 475 686 474.3C731.7 473.7 777.3 473.3 823 467.3C868.7 461.3 914.3 449.7 937.2 443.8L960 438L960 541L937.2 541C914.3 541 868.7 541 823 541C777.3 541 731.7 541 686 541C640.3 541 594.7 541 548.8 541C503 541 457 541 411.2 541C365.3 541 319.7 541 274 541C228.3 541 182.7 541 137 541C91.3 541 45.7 541 22.8 541L0 541Z" fill="#43d338"></path><path d="M0 516L22.8 514.8C45.7 513.7 91.3 511.3 137 510.2C182.7 509 228.3 509 274 503C319.7 497 365.3 485 411.2 479.3C457 473.7 503 474.3 548.8 479.2C594.7 484 640.3 493 686 497.3C731.7 501.7 777.3 501.3 823 498.2C868.7 495 914.3 489 937.2 486L960 483L960 541L937.2 541C914.3 541 868.7 541 823 541C777.3 541 731.7 541 686 541C640.3 541 594.7 541 548.8 541C503 541 457 541 411.2 541C365.3 541 319.7 541 274 541C228.3 541 182.7 541 137 541C91.3 541 45.7 541 22.8 541L0 541Z" fill="#25c724"></path></svg>