<svg id="visual" viewBox="0 0 960 540" width="960" height="540" xmlns="http://www.w3.org/2000/svg" xmlns:xlink="http://www.w3.org/1999/xlink" version="1.1"><rect x="0" y="0" width="960" height="540" fill="#140021"></rect><path d="M0 249L137 249L137 328L274 328L274 328L411 328L411 307L549 307L549 275L686 275L686 312L823 312L823 260L960 260L960 335L960 541L960 541L823 541L823 541L686 541L686 541L549 541L549 541L411 541L411 541L274 541L274 541L137 541L137 541L0 541Z" fill="#9900ff"></path><path d="M0 326L137 326L137 359L274 359L274 411L411 411L411 393L549 393L549 331L686 331L686 373L823 373L823 325L960 325L960 360L960 541L960 541L823 541L823 541L686 541L686 541L549 541L549 541L411 541L411 541L274 541L274 541L137 541L137 541L0 541Z" fill="#7700c6"></path><path d="M0 476L137 476L137 447L274 447L274 447L411 447L411 470L549 470L549 448L686 448L686 490L823 490L823 401L960 401L960 440L960 541L960 541L823 541L823 541L686 541L686 541L549 541L549 541L411 541L411 541L274 541L274 541L137 541L137 541L0 541Z" fill="#560090"></path></svg>