<svg id="visual" viewBox="0 0 540 960" width="540" height="960" xmlns="http://www.w3.org/2000/svg" xmlns:xlink="http://www.w3.org/1999/xlink" version="1.1"><rect x="0" y="0" width="540" height="960" fill="#001220"></rect><path d="M0 624L12.8 639.3C25.7 654.7 51.3 685.3 77 696.2C102.7 707 128.3 698 154 687.3C179.7 676.7 205.3 664.3 231.2 666.2C257 668 283 684 308.8 693.2C334.7 702.3 360.3 704.7 386 691.2C411.7 677.7 437.3 648.3 463 628.5C488.7 608.7 514.3 598.3 527.2 593.2L540 588L540 961L527.2 961C514.3 961 488.7 961 463 961C437.3 961 411.7 961 386 961C360.3 961 334.7 961 308.8 961C283 961 257 961 231.2 961C205.3 961 179.7 961 154 961C128.3 961 102.7 961 77 961C51.3 961 25.7 961 12.8 961L0 961Z" fill="#80fa69"></path><path d="M0 651L12.8 655.2C25.7 659.3 51.3 667.7 77 671.8C102.7 676 128.3 676 154 683.5C179.7 691 205.3 706 231.2 720.8C257 735.7 283 750.3 308.8 758C334.7 765.7 360.3 766.3 386 747.7C411.7 729 437.3 691 463 669.3C488.7 647.7 514.3 642.3 527.2 639.7L540 637L540 961L527.2 961C514.3 961 488.7 961 463 961C437.3 961 411.7 961 386 961C360.3 961 334.7 961 308.8 961C283 961 257 961 231.2 961C205.3 961 179.7 961 154 961C128.3 961 102.7 961 77 961C51.3 961 25.7 961 12.8 961L0 961Z" fill="#6ded59"></path><path d="M0 763L12.8 755.8C25.7 748.7 51.3 734.3 77 742.2C102.7 750 128.3 780 154 787.8C179.7 795.7 205.3 781.3 231.2 782.8C257 784.3 283 801.7 308.8 790.8C334.7 780 360.3 741 386 727.8C411.7 714.7 437.3 727.3 463 738.2C488.7 749 514.3 758 527.2 762.5L540 767L540 961L527.2 961C514.3 961 488.7 961 463 961C437.3 961 411.7 961 386 961C360.3 961 334.7 961 308.8 961C283 961 257 961 231.2 961C205.3 961 179.7 961 154 961C128.3 961 102.7 961 77 961C51.3 961 25.7 961 12.8 961L0 961Z" fill="#59e049"></path><path d="M0 866L12.8 852.5C25.7 839 51.3 812 77 798.7C102.7 785.3 128.3 785.7 154 785.8C179.7 786 205.3 786 231.2 796.3C257 806.7 283 827.3 308.8 836.8C334.7 846.3 360.3 844.7 386 843.7C411.7 842.7 437.3 842.3 463 831.7C488.7 821 514.3 800 527.2 789.5L540 779L540 961L527.2 961C514.3 961 488.7 961 463 961C437.3 961 411.7 961 386 961C360.3 961 334.7 961 308.8 961C283 961 257 961 231.2 961C205.3 961 179.7 961 154 961C128.3 961 102.7 961 77 961C51.3 961 25.7 961 12.8 961L0 961Z" fill="#43d338"></path><path d="M0 918L12.8 916C25.7 914 51.3 910 77 908C102.7 906 128.3 906 154 895.3C179.7 884.7 205.3 863.3 231.2 853.3C257 843.3 283 844.7 308.8 853.2C334.7 861.7 360.3 877.3 386 884.8C411.7 892.3 437.3 891.7 463 886.2C488.7 880.7 514.3 870.3 527.2 865.2L540 860L540 961L527.2 961C514.3 961 488.7 961 463 961C437.3 961 411.7 961 386 961C360.3 961 334.7 961 308.8 961C283 961 257 961 231.2 961C205.3 961 179.7 961 154 961C128.3 961 102.7 961 77 961C51.3 961 25.7 961 12.8 961L0 961Z" fill="#25c724"></path></svg>