<svg id="visual" viewBox="0 0 960 540" width="960" height="540" xmlns="http://www.w3.org/2000/svg" xmlns:xlink="http://www.w3.org/1999/xlink" version="1.1"><path d="M0 50L87 98L175 50L262 71L349 44L436 71L524 98L611 98L698 66L785 82L873 39L960 44L960 0L873 0L785 0L698 0L611 0L524 0L436 0L349 0L262 0L175 0L87 0L0 0Z" fill="#00cc8e"></path><path d="M0 249L87 320L175 266L262 239L349 276L436 255L524 298L611 228L698 271L785 228L873 249L960 266L960 42L873 37L785 80L698 64L611 96L524 96L436 69L349 42L262 69L175 48L87 96L0 48Z" fill="#00b98a"></path><path d="M0 293L87 357L175 330L262 271L349 309L436 347L524 374L611 276L698 303L785 303L873 298L960 341L960 264L873 247L785 226L698 269L611 226L524 296L436 253L349 274L262 237L175 264L87 318L0 247Z" fill="#00a784"></path><path d="M0 379L87 422L175 384L262 379L349 374L436 449L524 438L611 341L698 395L785 401L873 455L960 417L960 339L873 296L785 301L698 301L611 274L524 372L436 345L349 307L262 269L175 328L87 355L0 291Z" fill="#00957c"></path><path d="M0 541L87 541L175 541L262 541L349 541L436 541L524 541L611 541L698 541L785 541L873 541L960 541L960 415L873 453L785 399L698 393L611 339L524 436L436 447L349 372L262 377L175 382L87 420L0 377Z" fill="#038373"></path></svg>