<svg id="visual" viewBox="0 0 540 960" width="540" height="960" xmlns="http://www.w3.org/2000/svg" xmlns:xlink="http://www.w3.org/1999/xlink" version="1.1"><rect x="0" y="0" width="540" height="960" fill="#140021"></rect><path d="M0 409L77 409L77 536L154 536L154 536L231 536L231 454L309 454L309 459L386 459L386 491L463 491L463 589L540 589L540 479L540 961L540 961L463 961L463 961L386 961L386 961L309 961L309 961L231 961L231 961L154 961L154 961L77 961L77 961L0 961Z" fill="#9900ff"></path><path d="M0 717L77 717L77 703L154 703L154 667L231 667L231 586L309 586L309 626L386 626L386 557L463 557L463 648L540 648L540 622L540 961L540 961L463 961L463 961L386 961L386 961L309 961L309 961L231 961L231 961L154 961L154 961L77 961L77 961L0 961Z" fill="#7700c6"></path><path d="M0 727L77 727L77 736L154 736L154 820L231 820L231 819L309 819L309 735L386 735L386 819L463 819L463 796L540 796L540 781L540 961L540 961L463 961L463 961L386 961L386 961L309 961L309 961L231 961L231 961L154 961L154 961L77 961L77 961L0 961Z" fill="#560090"></path></svg>