<svg id="visual" viewBox="0 0 960 540" width="960" height="540" xmlns="http://www.w3.org/2000/svg" xmlns:xlink="http://www.w3.org/1999/xlink" version="1.1"><rect x="0" y="0" width="960" height="540" fill="#001220"></rect><defs><linearGradient id="grad1_0" x1="43.8%" y1="0%" x2="100%" y2="100%"><stop offset="14.444444444444446%" stop-color="#fbae3c" stop-opacity="1"></stop><stop offset="85.55555555555554%" stop-color="#fbae3c" stop-opacity="1"></stop></linearGradient></defs><defs><linearGradient id="grad1_1" x1="43.8%" y1="0%" x2="100%" y2="100%"><stop offset="14.444444444444446%" stop-color="#fbae3c" stop-opacity="1"></stop><stop offset="85.55555555555554%" stop-color="#eb7458" stop-opacity="1"></stop></linearGradient></defs><defs><linearGradient id="grad1_2" x1="43.8%" y1="0%" x2="100%" y2="100%"><stop offset="14.444444444444446%" stop-color="#b84e6c" stop-opacity="1"></stop><stop offset="85.55555555555554%" stop-color="#eb7458" stop-opacity="1"></stop></linearGradient></defs><defs><linearGradient id="grad1_3" x1="43.8%" y1="0%" x2="100%" y2="100%"><stop offset="14.444444444444446%" stop-color="#b84e6c" stop-opacity="1"></stop><stop offset="85.55555555555554%" stop-color="#713c69" stop-opacity="1"></stop></linearGradient></defs><defs><linearGradient id="grad1_4" x1="43.8%" y1="0%" x2="100%" y2="100%"><stop offset="14.444444444444446%" stop-color="#2d2b4c" stop-opacity="1"></stop><stop offset="85.55555555555554%" stop-color="#713c69" stop-opacity="1"></stop></linearGradient></defs><defs><linearGradient id="grad1_5" x1="43.8%" y1="0%" x2="100%" y2="100%"><stop offset="14.444444444444446%" stop-color="#2d2b4c" stop-opacity="1"></stop><stop offset="85.55555555555554%" stop-color="#001220" stop-opacity="1"></stop></linearGradient></defs><defs><linearGradient id="grad2_0" x1="0%" y1="0%" x2="56.3%" y2="100%"><stop offset="14.444444444444446%" stop-color="#fbae3c" stop-opacity="1"></stop><stop offset="85.55555555555554%" stop-color="#fbae3c" stop-opacity="1"></stop></linearGradient></defs><defs><linearGradient id="grad2_1" x1="0%" y1="0%" x2="56.3%" y2="100%"><stop offset="14.444444444444446%" stop-color="#eb7458" stop-opacity="1"></stop><stop offset="85.55555555555554%" stop-color="#fbae3c" stop-opacity="1"></stop></linearGradient></defs><defs><linearGradient id="grad2_2" x1="0%" y1="0%" x2="56.3%" y2="100%"><stop offset="14.444444444444446%" stop-color="#eb7458" stop-opacity="1"></stop><stop offset="85.55555555555554%" stop-color="#b84e6c" stop-opacity="1"></stop></linearGradient></defs><defs><linearGradient id="grad2_3" x1="0%" y1="0%" x2="56.3%" y2="100%"><stop offset="14.444444444444446%" stop-color="#713c69" stop-opacity="1"></stop><stop offset="85.55555555555554%" stop-color="#b84e6c" stop-opacity="1"></stop></linearGradient></defs><defs><linearGradient id="grad2_4" x1="0%" y1="0%" x2="56.3%" y2="100%"><stop offset="14.444444444444446%" stop-color="#713c69" stop-opacity="1"></stop><stop offset="85.55555555555554%" stop-color="#2d2b4c" stop-opacity="1"></stop></linearGradient></defs><defs><linearGradient id="grad2_5" x1="0%" y1="0%" x2="56.3%" y2="100%"><stop offset="14.444444444444446%" stop-color="#001220" stop-opacity="1"></stop><stop offset="85.55555555555554%" stop-color="#2d2b4c" stop-opacity="1"></stop></linearGradient></defs><g transform="translate(960, 0)"><path d="M0 432C-49.6 434.6 -99.3 437.2 -133.5 410.9C-167.7 384.5 -186.5 329.2 -215.7 296.9C-245 264.6 -284.7 255.4 -319.6 232.2C-354.4 209 -384.4 171.7 -402.3 130.7C-420.2 89.7 -426.1 44.8 -432 0L0 0Z" fill="#131f37"></path><path d="M0 360C-41.4 362.2 -82.7 364.3 -111.2 342.4C-139.8 320.4 -155.4 274.3 -179.8 247.4C-204.1 220.5 -237.3 212.8 -266.3 193.5C-295.3 174.1 -320.3 143.1 -335.2 108.9C-350.2 74.7 -355.1 37.4 -360 0L0 0Z" fill="#4d345e"></path><path d="M0 288C-33.1 289.7 -66.2 291.5 -89 273.9C-111.8 256.3 -124.3 219.5 -143.8 197.9C-163.3 176.4 -189.8 170.3 -213 154.8C-236.3 139.3 -256.2 114.5 -268.2 87.1C-280.1 59.8 -284.1 29.9 -288 0L0 0Z" fill="#96446e"></path><path d="M0 216C-24.8 217.3 -49.6 218.6 -66.7 205.4C-83.9 192.3 -93.2 164.6 -107.9 148.5C-122.5 132.3 -142.4 127.7 -159.8 116.1C-177.2 104.5 -192.2 85.9 -201.1 65.4C-210.1 44.8 -213.1 22.4 -216 0L0 0Z" fill="#d55e64"></path><path d="M0 144C-16.5 144.9 -33.1 145.7 -44.5 137C-55.9 128.2 -62.2 109.7 -71.9 99C-81.7 88.2 -94.9 85.1 -106.5 77.4C-118.1 69.7 -128.1 57.2 -134.1 43.6C-140.1 29.9 -142 14.9 -144 0L0 0Z" fill="#f88f4a"></path><path d="M0 72C-8.3 72.4 -16.5 72.9 -22.2 68.5C-28 64.1 -31.1 54.9 -36 49.5C-40.8 44.1 -47.5 42.6 -53.3 38.7C-59.1 34.8 -64.1 28.6 -67 21.8C-70 14.9 -71 7.5 -72 0L0 0Z" fill="#fbae3c"></path></g><g transform="translate(0, 540)"><path d="M0 -432C50.1 -435.8 100.2 -439.5 133.5 -410.9C166.8 -382.2 183.3 -321 206.9 -284.8C230.5 -248.5 261 -237.1 299.3 -217.5C337.6 -197.8 383.7 -169.9 407.1 -132.3C430.4 -94.6 431.2 -47.3 432 0L0 0Z" fill="#131f37"></path><path d="M0 -360C41.7 -363.1 83.5 -366.3 111.2 -342.4C139 -318.5 152.8 -267.5 172.4 -237.3C192 -207.1 217.5 -197.6 249.4 -181.2C281.4 -164.9 319.7 -141.6 339.2 -110.2C358.7 -78.9 359.4 -39.4 360 0L0 0Z" fill="#4d345e"></path><path d="M0 -288C33.4 -290.5 66.8 -293 89 -273.9C111.2 -254.8 122.2 -214 137.9 -189.8C153.6 -165.7 174 -158.1 199.6 -145C225.1 -131.9 255.8 -113.3 271.4 -88.2C287 -63.1 287.5 -31.5 288 0L0 0Z" fill="#96446e"></path><path d="M0 -216C25 -217.9 50.1 -219.8 66.7 -205.4C83.4 -191.1 91.7 -160.5 103.5 -142.4C115.2 -124.3 130.5 -118.6 149.7 -108.7C168.8 -98.9 191.8 -84.9 203.5 -66.1C215.2 -47.3 215.6 -23.7 216 0L0 0Z" fill="#d55e64"></path><path d="M0 -144C16.7 -145.3 33.4 -146.5 44.5 -137C55.6 -127.4 61.1 -107 69 -94.9C76.8 -82.8 87 -79 99.8 -72.5C112.5 -65.9 127.9 -56.6 135.7 -44.1C143.5 -31.5 143.7 -15.8 144 0L0 0Z" fill="#f88f4a"></path><path d="M0 -72C8.3 -72.6 16.7 -73.3 22.2 -68.5C27.8 -63.7 30.6 -53.5 34.5 -47.5C38.4 -41.4 43.5 -39.5 49.9 -36.2C56.3 -33 63.9 -28.3 67.8 -22C71.7 -15.8 71.9 -7.9 72 0L0 0Z" fill="#fbae3c"></path></g></svg>